<?xml version="1.0" encoding="utf-8"?>
<!-- Generator: Adobe Illustrator 21.1.0, SVG Export Plug-In . SVG Version: 6.00 Build 0)  -->
<svg version="1.1" id="Capa_1" xmlns="http://www.w3.org/2000/svg" xmlns:xlink="http://www.w3.org/1999/xlink" x="0px" y="0px"
	 width="465.5px" height="160px" viewBox="0 0 465.5 160" style="enable-background:new 0 0 465.5 160;" xml:space="preserve">
<style type="text/css">
	.st0{fill:#004192;}
	.st1{fill:#F96A53;}
</style>
<g>
	<path class="st0" d="M161.6,76.1c11.1,3.7,17.4,10.1,18.2,21.2c0.9,12.3-4.4,21.5-14.3,28.3c-5.7,4-12.2,6.4-19,7.6
		c-12.9,2.4-25.9,2.5-38.8,0.4c-13-2.1-18.7-10-15.9-23c5.8-26.8,12-53.6,18.1-80.3c0.5-2.1,1.1-3.7,3.8-3.9
		c14.6-1.3,29.1-3.5,43.8-1c5.4,0.9,10.6,2.2,15.4,4.6c16.6,8.2,18.3,28,3.6,39.1C172.3,72.2,167.6,74.2,161.6,76.1z M123.4,86.3
		c-1.9,8.7-3.7,16.7-5.5,24.6c-0.7,3-0.3,5.4,3.3,5.6c8.4,0.4,16.8,0,24.3-4.4c5.7-3.3,8.1-8.5,7.3-15.1c-0.8-6.3-5.3-8.8-10.8-10.5
		C135.9,84.7,130,87.7,123.4,86.3z M141.9,42.6c-2.6,1.7-7.5-2.4-9.1,3c-1.7,6-2.9,12.2-4.3,18.4c-0.5,2.1,0.2,4,2.5,4.1
		c9,0.5,18,0.6,25.3-5.8c7.1-6.2,4.9-15.8-4.1-18.7C149,42.7,145.7,42.7,141.9,42.6z"/>
	<path class="st0" d="M378.7,44.1c-5.1-14-18-17.3-31.2-18.6c-12.2-1.2-24.5-0.6-36.7,0.8c-4.2,0.5-6.3,2.1-7.3,6.5
		c-7.2,32.8-14.7,65.6-22,98.4c-0.3,1.2-0.9,2.5,0.7,4c2.9,0,6.3,0,9.6,0c12.2,0,15.8-2.9,18.5-14.7c1.6-7,3.2-14.1,4.7-20.9
		c2.5-0.9,4.5-0.2,6.5-0.1c17.6,0.6,34.3-2.3,47.2-15.5C379.7,72.8,384.3,59.2,378.7,44.1z M356.7,61.6
		C354.3,73,344.5,80.1,331,80.2c-8.8,0-9.6-1-7.7-9.9c1.6-7.3,3.3-14.5,4.6-21.8c0.6-3.6,2.4-5,5.9-5c3.7-0.1,7.4-0.3,11.1,0.4
		C354.5,45.7,358.7,52,356.7,61.6z"/>
	<path class="st0" d="M280,27.4c-23.1-8.4-45.3-6.9-64.4,9.6c-18.3,15.8-24.1,36.8-21.8,60.4c1.3,13.5,7,24.8,19.1,31.7
		c15.4,8.8,31.9,9.1,48.5,4.2c3.7-1.1,6.5-3.7,7.5-7.6c1.5-5.9,2.8-11.8,4.3-18.5c-5.2,2.8-9.4,5.4-14.2,6.9
		c-15.1,4.7-30.2-1.1-35.5-13.7c-7.3-17.4,3.1-44.8,20.4-52.8c14.2-6.5,27.9-3.6,41.6,4c0.8-3,1.6-5.7,2.3-8.4
		C289.8,34.9,288.1,30.4,280,27.4z"/>
	<path class="st1" d="M48,35.6c13.6,6.9,24.5,16.8,32.5,29.6c4.9,7.9,4.3,16.6-1.2,24.2C68,105.2,53,116.8,35.6,124.8
		C23.9,130.2,11,123.9,6,111.2c7-3.7,14-7.5,20.4-12.2c9.6-7,17.9-15.1,22-26.6C54,60.1,54.5,47.8,48,35.6z"/>
	<path class="st1" d="M423,35.6c13.6,6.8,24.5,16.9,32.6,29.6c4.9,7.7,4.5,16.2-0.8,23.7c-11.4,16.2-26.7,28-44.5,36.1
		c-11.6,5.2-24.2-1.2-29.1-13.6c6.6-3.6,13.3-7.2,19.4-11.7c9.9-7.2,18.7-15.4,22.9-27.3C429.2,60,429.6,47.7,423,35.6z"/>
	<path class="st0" d="M48,35.6c6.5,12.2,5.9,24.4,0.3,36.7C39.8,63.1,29.2,56.8,18,51.8C23.9,35.9,37.3,28.9,48,35.6z"/>
	<path class="st0" d="M423,35.6c6.6,12.2,6.2,24.4,0.4,36.8c-8.4-9.2-18.9-15.4-30.7-20.7c3.9-8.8,9.5-15.2,18.3-18.5
		C415.5,31.4,419.4,32.7,423,35.6z"/>
</g>
</svg>
