<svg xmlns="http://www.w3.org/2000/svg" viewBox="0 0 600.1 109"><defs><style>.cls-1{fill:#00a24f;}.cls-2{fill:#0060a9;}</style></defs><title>Recurso 1</title><g id="Capa_2" data-name="Capa 2"><g id="layer"><path class="cls-1" d="M295.7,31.7c-17.2,0-29.3,12.4-29.4,32.4,0,18.3,14.6,29.6,29.5,29.6,8.9,0,14.4-1.4,17.6-4V79.6a34.89,34.89,0,0,1-14.7,3c-9.2,0-16.6-5-17.8-13l-.1-.7h10.7c10.1,0,17.2-.9,21.7-3.1s6.4-5.6,6.4-11c0-14.3-11.5-23.1-23.9-23.1m7,26.3c-2.8,1-7.2,1.4-14.5,1.4h-7.5v-.7l.1-2c.3-7.2,5.7-13.6,13.5-13.6a14.78,14.78,0,0,1,8.8,2.4,8.71,8.71,0,0,1,3.4,7.3c.1,2.4-1,4.2-3.8,5.2M327,54.8V92.7h14.1V57.6c0-4.7.9-8.1,2.9-10.4s4.8-3.2,8.3-3.2a21.7,21.7,0,0,1,3.8.3V33.1a15.61,15.61,0,0,0-7.1-1.5c-15.8.1-22,11.3-22,23.2M155.9,92.7V16.4h-14V92.7h14Zm37.9-61c-18.8,0-26.9,12.8-27,25.4V92.7h14V58.1A16.63,16.63,0,0,1,184,47.6a10.8,10.8,0,0,1,8.5-3.8c4,0,7.3,1.2,9.6,3.7s3.4,6.5,3.4,11.7V92.7h14V57.9c0-16.9-11.6-26.2-25.7-26.2m50.4-15.3H230.3V71.5c.1,14,7.1,22.2,22.3,22.3,6.5,0,10.3-2.1,11.9-5.5V79.6c-2.5,1.1-5.9,1.6-10.1,1.6-3.2,0-5.8-.8-7.6-2.7s-2.7-4.8-2.7-8.9V43.8h12.2c6,0,8.5-3.8,8.5-6.6V31.6H244.2V16.4ZM509.7,31.7c-18.8,0-26.9,12.8-27,25.4l.1,35.6h13.9V58.1c0-4.5,1.2-8,3.2-10.5a10.8,10.8,0,0,1,8.5-3.8c4,0,7.3,1.2,9.6,3.8s3.4,6.4,3.4,11.6V92.7h13.9V57.9c.1-16.9-11.4-26.2-25.6-26.2m-116.5,0c-7.9,0-12.8,4.7-15.7,9l-1.1,1.6V16.4H362.5V63.7c0,20.1,12.1,30.1,27.8,30.1,17.9,0,29.2-14.1,29.2-32.1,0-17.7-11.4-30-26.3-30m-1.3,50.2h0c-4.6,0-8.7-1.3-11.4-4.7s-4-8.6-4-15.7c0-9.7,5.9-17.6,13.9-17.7,4.7,0,8.5,1.3,11.1,4.6s3.9,8.3,3.9,15.8c-.1,10.1-5.6,17.7-13.5,17.7m56.3-50.2c-8.5,0-14.1,2.3-18,5.3v9.8a35.17,35.17,0,0,1,15.7-3.4c4.6,0,8.6.7,10.9,2.5s3.4,4.9,3.4,9.3v1.4h-6c-22.4.1-29.8,8-29.8,18.5,0,10.8,9.6,18.7,23.9,18.7h3.1c13.3,0,22.5-8.6,22.5-21.2v-14c.1-21.3-12.2-26.8-25.7-26.9m12.2,41c0,3.2-.8,5.7-2.6,7.5s-4.4,2.5-7.8,2.5h0a14.23,14.23,0,0,1-8.2-2.1,7.06,7.06,0,0,1-3-6.1,6.69,6.69,0,0,1,3.4-6.3c2.4-1.4,6.3-2,12.1-2h6.1Z"/><path class="cls-1" d="M575.3,61.1l-.3-.4.3-.4c6.1-7.7,19.4-22.7,24.3-27.2h-7.7c-4.9,0-8.2.5-11.7,3.8-7,6.6-12.8,14.4-18.7,22l-1.1,1.5.1-44H546.4V92.6h14.1V61.7l1.1,1.5c6.7,8.9,13.5,17.9,21.3,25.9a14.76,14.76,0,0,0,9.6,4c3.9,0,6.1-1,7.6-2.8-4-4.7-20-23.4-24.8-29.2"/><path class="cls-2" d="M14.5,0A14.6,14.6,0,0,0,0,14.6V109H94.5a14.62,14.62,0,0,0,14.6-14.6V0ZM83.6,78.7,25.5,89.2V30.6L83.6,20.1Z"/></g></g></svg>